<svg xmlns="http://www.w3.org/2000/svg" width="384" height="394" fill="none" viewBox="0 0 384 394"><rect width="384" height="394" fill="#09090b"/><path fill="#d19a66" d="M180.636 106.091V72h22.728v34.091zm0 215.909v-34.091h22.728V322zm102.273-113.636v-22.728H317v22.728zm-215.909 0v-22.728h34.091v22.728zm201.136-71.591-15.909-15.909 19.887-20.455 16.477 16.477zm-156.25 156.818-16.477-16.477 20.455-19.887 15.909 15.909zm160.228 0-19.887-20.455 15.909-15.909 20.455 19.887zm-156.25-156.818-20.455-19.887 16.477-16.477 19.887 20.455zM192 265.182q-28.409 0-48.295-19.887-19.887-19.886-19.887-48.295t19.887-48.295q19.886-19.887 48.295-19.887t48.295 19.887q19.887 19.886 19.887 48.295t-19.887 48.295Q220.409 265.182 192 265.182m0-22.727q19.034 0 32.244-13.211T237.455 197q0-19.034-13.211-32.244T192 151.545q-19.034 0-32.244 13.211T146.545 197q0 19.034 13.211 32.244T192 242.455"/></svg>